# File created by Blade
# Date/Time:  Wed Apr 08 16:19:59 2015
# Frame Rate: 120.000 fps
#------------------------------------------------------
:FULLY-SPECIFIED
:DEGREES
3397
root 10.625792 33.039674 -0.291067 372.081245 -32.095212 -720.985732
Spine -12.077299 2.552515 -3.671654
Head -0.628787 6.852694 1.432059
LeftShoulder -26.230117 44.275116 11.797158
LeftArm 60.152805 -55.402977 -81.558115
LeftForeArm 5.116035 0.000000 17.206431
LeftHand 9.812668 0.000000 13.089179
LeftHandThumb1 -26.253704 0.000000 33.147579
RightShoulder -4.027416 0.464447 -25.330078
RightArm 17.505073 2.776142 57.906197
RightForeArm -14.274380 -0.000000 23.317365
RightHand 9.234631 -0.000000 -4.212782
RightHandThumb1 -24.326973 -0.000000 -32.862282
LeftUpLeg -19.355709 -8.458004 -3.404400
LeftLeg 18.039847 -0.000000 -0.000000
LeftFoot -1.612017 14.383448 -5.378363
LeftToeBase -17.965806 -0.000000 0.000000
RightUpLeg -22.068492 -9.389122 3.251824
RightLeg 51.071156 -0.000000 -0.000000
RightFoot -8.335637 -6.512979 18.692879
RightToeBase -9.796297 -0.000000 0.000000
3398
root 10.457427 33.137847 -0.238868 372.065514 -30.883452 -721.207093
Spine -11.936574 2.092223 -3.393524
Head -0.578407 6.410377 1.325419
LeftShoulder -25.876473 44.171891 12.156862
LeftArm 60.395925 -55.222197 -80.855203
LeftForeArm 5.305646 0.000000 16.677965
LeftHand 9.750632 0.000000 12.915963
LeftHandThumb1 -26.253704 0.000000 33.147579
RightShoulder -4.134591 0.378875 -25.510581
RightArm 17.405341 2.885270 57.391969
RightForeArm -13.943627 -0.000000 22.660729
RightHand 9.016029 0.000000 -4.063399
RightHandThumb1 -24.326973 -0.000000 -32.862282
LeftUpLeg -18.694588 -8.491043 -3.177385
LeftLeg 17.316207 -0.000000 -0.000000
LeftFoot -0.778889 14.399700 -4.877760
LeftToeBase -18.100468 -0.000000 0.000000
RightUpLeg -21.881775 -8.779668 3.102292
RightLeg 49.300248 -0.000000 -0.000000
RightFoot -9.673497 -8.014884 18.496195
RightToeBase -10.059998 -0.000000 0.000000
3399
root 10.287724 33.239188 -0.186278 372.071802 -29.655569 -721.464721
Spine -11.826895 1.642792 -3.066908
Head -0.471433 5.935783 1.213497
LeftShoulder -25.424587 44.001006 12.582330
LeftArm 60.153785 -54.972811 -79.614856
LeftForeArm 5.488567 0.000000 16.118590
LeftHand 9.679726 -0.000000 13.087056
LeftHandThumb1 -26.253704 0.000000 33.147579
RightShoulder -4.217649 0.283691 -25.693207
RightArm 17.239993 3.187326 56.938822
RightForeArm -14.088113 -0.000000 22.026460
RightHand 9.350924 0.000000 -4.235906
RightHandThumb1 -24.326973 -0.000000 -32.862282
LeftUpLeg -18.043144 -8.340391 -2.960806
LeftLeg 16.564551 -0.000000 -0.000000
LeftFoot 0.168792 14.361178 -4.125192
LeftToeBase -18.398180 -0.000000 0.000000
RightUpLeg -21.622029 -8.252203 2.980592
RightLeg 47.224079 -0.000000 -0.000000
RightFoot -10.961627 -9.610723 18.837742
RightToeBase -10.115087 -0.000000 0.000000
3400
root 10.124605 33.343386 -0.136851 372.082629 -28.448495 -721.661183
Spine -11.766214 1.201301 -2.798237
Head -0.303083 5.455127 1.139273
LeftShoulder -25.030731 43.876074 12.965948
LeftArm 59.966849 -54.682577 -78.358515
LeftForeArm 5.700749 -0.000000 15.538852
LeftHand 9.553881 -0.000000 13.144201
LeftHandThumb1 -26.253704 0.000000 33.147579
RightShoulder -4.274127 0.200303 -25.867702
RightArm 17.059609 3.471157 56.469255
RightForeArm -14.062241 -0.000000 21.378410
RightHand 9.425728 -0.000000 -4.577373
RightHandThumb1 -24.326973 -0.000000 -32.862282
LeftUpLeg -17.375409 -8.435661 -2.718014
LeftLeg 15.689356 -0.000000 -0.000000
LeftFoot 1.001229 14.469873 -3.805635
LeftToeBase -18.177434 -0.000000 0.000000
RightUpLeg -21.342039 -7.725117 2.799350
RightLeg 44.937898 -0.000000 -0.000000
RightFoot -12.062163 -11.377535 19.123405
RightToeBase -9.918698 -0.000000 0.000000
3401
root 9.964651 33.446414 -0.091962 372.121964 -27.239444 -721.875565
Spine -11.726947 0.745364 -2.494944
Head -0.117790 4.995581 1.040580
LeftShoulder -24.632401 43.666830 13.398250
LeftArm 59.586854 -54.349815 -76.923694
LeftForeArm 5.915343 -0.000000 14.905210
LeftHand 9.503027 -0.000000 13.185126
LeftHandThumb1 -26.253704 0.000000 33.147579
RightShoulder -4.320386 0.188723 -26.062200
RightArm 16.848607 3.678230 55.993045
RightForeArm -13.864618 -0.000000 20.685642
RightHand 9.369520 0.000000 -4.741541
RightHandThumb1 -24.326973 -0.000000 -32.862282
LeftUpLeg -16.789487 -8.281190 -2.501638
LeftLeg 14.886316 -0.000000 -0.000000
LeftFoot 1.917240 14.367783 -3.401008
LeftToeBase -18.354058 -0.000000 0.000000
RightUpLeg -21.013677 -7.205827 2.618364
RightLeg 42.413381 -0.000000 -0.000000
RightFoot -12.999008 -13.127870 19.452718
RightToeBase -9.559190 -0.000000 0.000000
3402
root 9.806848 33.547815 -0.042942 372.162543 -26.043012 -722.025598
Spine -11.749493 0.257275 -2.265547
Head 0.093789 4.587182 1.019674
LeftShoulder -24.283090 43.490591 13.862012
LeftArm 59.272711 -54.013592 -75.615514
LeftForeArm 6.209847 -0.000000 14.286115
LeftHand 9.549637 -0.000000 13.164364
LeftHandThumb1 -26.253704 0.000000 33.147579
RightShoulder -4.356955 0.185335 -26.234234
RightArm 16.627212 3.870283 55.518044
RightForeArm -13.747982 0.000000 19.979561
RightHand 9.552572 -0.000000 -4.572991
RightHandThumb1 -24.326973 -0.000000 -32.862282
LeftUpLeg -16.224998 -8.064184 -2.355621
LeftLeg 14.041879 -0.000000 -0.000000
LeftFoot 2.914097 14.283565 -3.083263
LeftToeBase -18.756502 -0.000000 0.000000
RightUpLeg -20.673411 -6.788436 2.371056
RightLeg 39.788269 -0.000000 -0.000000
RightFoot -13.728932 -14.571405 20.046448
RightToeBase -9.612516 -0.000000 0.000000
3403
root 9.657291 33.645343 0.002999 372.191355 -24.843955 -722.146821
Spine -11.758269 -0.234074 -2.033480
Head 0.298358 4.179529 0.954043
LeftShoulder -23.866366 43.212427 14.381514
LeftArm 58.693803 -53.669072 -74.107269
LeftForeArm 6.408571 -0.000000 13.687884
LeftHand 9.569584 0.000000 13.285180
LeftHandThumb1 -26.253704 0.000000 33.147579
RightShoulder -4.405852 0.173069 -26.421700
RightArm 16.453191 4.065030 55.025321
RightForeArm -13.570128 -0.000000 19.253196
RightHand 9.644886 -0.000000 -4.630509
RightHandThumb1 -24.326973 -0.000000 -32.862282
LeftUpLeg -15.675001 -7.839572 -2.241395
LeftLeg 13.167652 -0.000000 -0.000000
LeftFoot 3.969279 14.194295 -2.726480
LeftToeBase -19.463360 -0.000000 0.000000
RightUpLeg -20.295789 -6.391149 2.063564
RightLeg 37.052503 -0.000000 -0.000000
RightFoot -14.362235 -15.668128 20.540819
RightToeBase -8.510185 -0.000000 0.000000
3404
root 9.508009 33.740896 0.043990 372.320159 -23.702581 -722.320204
Spine -11.859258 -0.653140 -1.755142
Head 0.493609 3.762267 0.865821
LeftShoulder -23.438053 42.981558 14.894131
LeftArm 58.262498 -53.433318 -72.871040
LeftForeArm 6.628432 -0.000000 13.228528
LeftHand 9.547120 -0.000000 13.186905
LeftHandThumb1 -26.253704 0.000000 33.147579
RightShoulder -4.467369 0.213840 -26.613523
RightArm 16.254973 4.220029 54.517897
RightForeArm -13.300774 -0.000000 18.523502
RightHand 9.568026 -0.000000 -4.888412
RightHandThumb1 -24.326973 -0.000000 -32.862282
LeftUpLeg -15.202471 -7.651118 -2.052334
LeftLeg 12.282951 -0.000000 -0.000000
LeftFoot 4.968101 14.295638 -2.619725
LeftToeBase -19.747539 -0.000000 0.000000
RightUpLeg -19.897814 -5.796809 1.780349
RightLeg 34.104548 -0.000000 -0.000000
RightFoot -14.769912 -16.498455 20.891844
RightToeBase -8.108061 -0.000000 0.000000
3405
root 9.361202 33.830457 0.079973 372.484526 -22.591180 -722.493021
Spine -12.005495 -1.069113 -1.475836
Head 0.703422 3.394859 0.810223
LeftShoulder -23.031244 42.734442 15.412245
LeftArm 57.747949 -53.194685 -71.573743
LeftForeArm 6.732715 -0.000000 12.779837
LeftHand 9.643679 -0.000000 13.250570
LeftHandThumb1 -26.253704 0.000000 33.147579
RightShoulder -4.508145 0.218821 -26.831703
RightArm 16.038612 4.520393 54.102187
RightForeArm -13.356244 0.000000 17.863217
RightHand 9.749276 -0.000000 -4.463666
RightHandThumb1 -24.326973 -0.000000 -32.862282
LeftUpLeg -14.810370 -7.403525 -1.872260
LeftLeg 11.443333 -0.000000 -0.000000
LeftFoot 5.911386 14.351944 -2.424786
LeftToeBase -20.063251 -0.000000 0.000000
RightUpLeg -19.528438 -5.179669 1.481503
RightLeg 31.121019 -0.000000 -0.000000
RightFoot -14.770878 -16.881418 20.872746
RightToeBase -8.205815 -0.000000 0.000000
